<?xml version="1.0" standalone="no"?>
<!DOCTYPE svg PUBLIC "-//W3C//DTD SVG 20010904//EN"
 "http://www.w3.org/TR/2001/REC-SVG-20010904/DTD/svg10.dtd">
<svg version="1.0" xmlns="http://www.w3.org/2000/svg"
 width="752.000000pt" height="752.000000pt" viewBox="0 0 752.000000 752.000000"
 preserveAspectRatio="xMidYMid meet">

<g transform="translate(0.000000,752.000000) scale(0.100000,-0.100000)"
fill="rgb(122, 122, 122)" stroke="none">
<path d="M1976 6054 c-169 -41 -337 -174 -409 -324 -72 -148 -67 -2 -67 -1970
0 -1553 2 -1783 15 -1835 57 -223 244 -407 465 -459 96 -23 2472 -24 2567 -1
176 41 333 166 415 328 56 111 68 186 68 418 l0 207 -26 31 c-34 41 -92 44
-129 6 -25 -24 -25 -26 -25 -202 0 -98 -5 -207 -10 -243 -21 -133 -115 -267
-228 -324 -115 -58 -63 -56 -1343 -56 -743 0 -1196 4 -1230 10 -119 22 -254
122 -308 228 -53 105 -51 18 -51 1892 0 1527 2 1743 15 1795 43 164 180 294
345 325 77 15 2382 14 2452 -1 175 -37 315 -181 348 -358 6 -32 10 -298 10
-658 0 -414 3 -611 11 -625 6 -11 26 -26 45 -34 29 -12 39 -12 68 0 19 8 39
24 46 35 7 15 10 209 8 678 l-3 658 -27 73 c-74 203 -246 359 -448 406 -95 23
-2482 22 -2574 0z"/>
<path d="M2165 5455 c-28 -27 -34 -88 -12 -116 30 -39 22 -39 1117 -39 l1062
0 29 29 c37 37 38 79 3 120 l-26 31 -1074 0 -1075 0 -24 -25z"/>
<path d="M2166 4894 c-19 -19 -26 -37 -26 -64 0 -27 7 -45 26 -64 l27 -26
1069 0 1070 0 29 29 c39 40 39 82 0 122 l-29 29 -1070 0 -1069 0 -27 -26z"/>
<path d="M5517 4499 c-49 -11 -126 -51 -167 -85 -24 -21 -1347 -1488 -1446
-1604 -13 -16 -134 -581 -134 -627 0 -61 64 -123 127 -123 18 0 160 41 315 91
269 86 285 93 325 132 23 23 351 386 729 807 736 820 733 816 754 946 26 159
-58 334 -201 417 -84 49 -207 68 -302 46z m191 -211 c104 -49 150 -184 99
-290 -14 -30 -241 -290 -661 -757 -352 -391 -643 -711 -646 -711 -13 0 -331
292 -328 301 8 24 1295 1442 1322 1456 68 36 139 36 214 1z m-1500 -1749 c81
-72 148 -134 149 -138 4 -9 -366 -126 -374 -118 -6 6 68 387 75 387 2 0 70
-59 150 -131z"/>
<path d="M2185 4348 c-52 -30 -62 -102 -20 -143 l24 -25 1075 0 1074 0 26 31
c35 41 34 83 -3 120 l-29 29 -1064 0 c-781 -1 -1068 -4 -1083 -12z"/>
</g>
</svg>
